<?xml version="1.0" encoding="UTF-8"?>
<svg id="Layer_2" data-name="Layer 2" xmlns="http://www.w3.org/2000/svg" viewBox="0 0 568.16 493.18">
  <defs>
    <style>
      .cls-1 {
        fill: #fff;
      }
    </style>
  </defs>
  <g id="Layer_1-2" data-name="Layer 1">
    <path class="cls-1" d="M536.46,261.38c-21.92-125.29-114.58-225.91-238.35-257.77l-14.03-3.61-14.03,3.61C146.28,35.47,53.62,136.09,31.7,261.38H0v231.81h112.55v-119.25h26.81v-56.28c0-91.84,58.01-172.16,144.71-200.92,86.7,28.76,144.71,109.07,144.71,200.92v56.28h26.81v119.25h112.55v-231.81h-31.7ZM51.44,273.65c17.66-120.96,105.57-218.8,223.95-249.27l8.68-2.23,8.68,2.23c118.38,30.47,206.29,128.31,223.95,249.27l1.34,9.17h7.98l-30.48,23.55c-4.91-122.48-89.38-227.9-208.8-258.64l-2.67-.69-2.67.69c-119.42,30.74-203.89,136.16-208.8,258.64l-30.48-23.55h7.98l1.34-9.17ZM21.44,293.93l30.71,23.73h-6.59v154.09h-24.12v-177.82ZM91.11,471.74h-24.12v-142.62l30.25,23.37h-6.13v119.25ZM287.29,95.25l-3.22-1.01-3.22,1.01c-97.46,30.65-162.93,120.02-162.93,222.41v23.73l-24.12-18.63v-5.09c0-116.54,78.1-218.31,190.27-248.46,112.17,30.15,190.27,131.92,190.27,248.46v5.09l-24.12,18.63v-23.73c0-102.38-65.48-191.76-162.93-222.41ZM470.91,352.49l30.25-23.37v142.62h-24.12v-119.25h-6.13ZM522.6,471.74v-154.09h-6.59l30.71-23.73v177.82h-24.12Z"/>
  </g>
</svg>