<?xml version="1.0" encoding="UTF-8"?>
<svg id="Layer_2" data-name="Layer 2" xmlns="http://www.w3.org/2000/svg" viewBox="0 0 1313.15 493.18">
  <g id="Layer_1-2" data-name="Layer 1">
    <g>
      <path d="M1281.45,261.38c-21.92-125.29-114.58-225.91-238.35-257.77l-14.03-3.61-14.03,3.61c-123.77,31.85-216.43,132.47-238.35,257.77h-31.7v231.81h112.55v-119.25h26.81v-56.28c0-91.84,58.01-172.16,144.71-200.92,86.7,28.76,144.71,109.07,144.71,200.92v56.28h26.81v119.25h112.55v-231.81h-31.7ZM796.44,273.65c17.66-120.96,105.57-218.8,223.95-249.27l8.68-2.23,8.68,2.23c118.38,30.47,206.29,128.31,223.95,249.27l1.34,9.17h7.98l-30.48,23.55c-4.91-122.48-89.38-227.9-208.8-258.64l-2.67-.69-2.67.69c-119.42,30.74-203.89,136.16-208.8,258.64l-30.48-23.55h7.98l1.34-9.17ZM766.43,293.93l30.71,23.73h-6.59v154.09h-24.12v-177.82ZM836.11,471.74h-24.12v-142.62l30.25,23.37h-6.13v119.25ZM1032.29,95.25l-3.22-1.01-3.22,1.01c-97.46,30.65-162.93,120.02-162.93,222.41v23.73l-24.12-18.63v-5.09c0-116.54,78.1-218.31,190.27-248.46,112.17,30.15,190.27,131.92,190.27,248.46v5.09l-24.12,18.63v-23.73c0-102.38-65.48-191.76-162.93-222.41ZM1215.91,352.49l30.25-23.37v142.62h-24.12v-119.25h-6.13ZM1267.59,471.74v-154.09h-6.59l30.71-23.73v177.82h-24.12Z"/>
      <g>
        <path d="M349.01,167.45h2.73c5.15,0,8.84-2.89,8.84-9.81s-3.7-9.97-8.84-9.97h-2.73c-5.15,0-8.84,2.89-8.84,9.97s3.7,9.81,8.84,9.81Z"/>
        <path d="M372.97,167.45h2.73c5.15,0,8.84-2.89,8.84-9.81s-3.7-9.97-8.84-9.97h-2.73c-5.15,0-8.84,2.89-8.84,9.97s3.7,9.81,8.84,9.81Z"/>
        <path d="M441.14,278.55h-2.73c-5.15,0-8.84,2.89-8.84,9.97s3.7,9.81,8.84,9.81h2.73c5.15,0,8.84-2.89,8.84-9.81s-3.7-9.97-8.84-9.97Z"/>
        <path d="M450.79,198.48l-15.76,2.57,2.58,14.47c1.44,8.68,1.93,13.67,1.93,17.04,0,8.04-4.82,10.77-19.78,10.77h-21.23s0,0,0,0h-4.99c-7.88,0-10.93-2.41-10.93-9.49v-53.38h-16.88v8.68l-17.53,9.01c-17.36,9-27.01,18.49-27.01,34.57,0,14.63,8.04,23.15,22.99,23.15,12.06,0,18.17-4.99,21.38-18.33h.97v1.28c0,16.56,8.2,25.41,27.65,25.57h0s0,0,0,0h25.57c24.28,0,35.05-10.13,35.05-31.84,0-4.98-.64-12.38-1.77-19.61l-2.25-14.47ZM365.73,225.33c0,7.07-4.5,9.49-17.04,9.49-9.65,0-12.86-2.25-12.86-8.04,0-6.43,5.31-9.81,16.72-15.44l13.18-6.59v20.58Z"/>
        <rect x="470.73" y="145.42" width="17.2" height="118.98"/>
        <path d="M522.34,187.06c6.27,0,9.65-4.66,10.45-13.99h.64c1.13,5.15,4.99,8.2,9.97,8.2,8.84,0,13.99-6.59,13.99-17.36,0-3.86-.8-8.84-2.41-13.51l-9.97,2.89c1.45,4.18,2.41,8.04,2.41,10.77s-1.61,4.34-4.02,4.34c-2.25,0-3.54-1.45-3.54-4.5v-6.59h-9.97v10.77c0,4.18-1.45,6.11-4.18,6.11-1.93,0-3.05-1.28-3.05-3.54v-8.68h-10.13v11.9c0,8.36,3.7,13.18,9.81,13.18Z"/>
        <path d="M632.32,232.56c0-4.98-.64-12.38-1.77-19.61l-2.25-14.47-15.76,2.57,2.58,14.47c1.44,8.68,1.93,13.67,1.93,17.04,0,8.04-4.82,10.77-19.78,10.77h-21.23s0,0,0,0h-7.88c-.64-28.14-12.54-44.86-31.51-44.86s-31.84,16.56-31.84,37.94c0,17.53,10.29,27.98,27.49,27.98h19.13c-4.5,10.77-16.88,17.53-38.43,17.53h-9.81v21.06h10.93c28.94,0,46.47-14.15,52.09-38.59h5.47s0,0,0,0h25.57c24.28,0,35.05-10.13,35.05-31.84ZM553.38,243.34h-19.94c-8.84,0-13.99-2.89-13.99-9.65,0-8.2,6.43-14.15,15.44-14.15,10.93,0,18.49,8.68,18.49,22.03v1.77Z"/>
        <path d="M618.66,278.55h-2.73c-5.15,0-8.84,2.89-8.84,9.97s3.7,9.81,8.84,9.81h2.73c5.15,0,8.84-2.89,8.84-9.81s-3.7-9.97-8.84-9.97Z"/>
      </g>
      <g>
        <path d="M0,368.76h48.87c17.4,0,27.99,10.74,27.99,27.08s-9.23,22.09-18.91,22.69v.91c9.23.15,22.84,6.66,22.84,24.66,0,16.95-11.65,30.26-27.23,30.26H0v-105.6ZM19.97,412.79h24.66c7.26,0,11.5-4.23,11.5-11.2v-4.69c0-7.11-4.24-11.2-11.5-11.2h-24.66v27.08ZM19.97,457.42h27.84c7.57,0,12.1-4.09,12.1-11.5v-5.14c0-7.41-4.54-11.65-12.1-11.65h-27.84v28.29Z"/>
        <path d="M93.51,452.88c0-16.19,12.26-24.21,33.74-24.21h13.47v-5.75c0-8.77-4.39-13.92-14.68-13.92-9.08,0-14.22,4.54-18.01,9.99l-11.5-10.29c5.75-9.08,14.98-15.13,30.87-15.13,21.33,0,32.68,10.14,32.68,28.14v37.22h7.87v15.43h-10.74c-8.32,0-13.46-5.45-14.68-13.62h-.91c-2.57,10.14-11.2,15.43-23,15.43-16.04,0-25.12-9.23-25.12-23.3ZM140.71,450.76v-10.44h-12.41c-10.14,0-15.13,3.48-15.13,9.68v2.57c0,6.35,4.39,9.53,11.95,9.53,8.62,0,15.58-3.93,15.58-11.35Z"/>
        <path d="M175.22,395.39h18.61l8.02,32.53,6.2,27.08h.6l7.26-27.08,9.23-32.53h17.55l9.53,32.53,7.41,27.08h.6l6.2-27.08,7.87-32.53h18.01l-21.64,78.98h-20.88l-10.14-34.8-5.9-21.48h-.45l-5.75,21.48-9.99,34.8h-20.58l-21.79-78.98Z"/>
        <path d="M299.29,452.88c0-16.19,12.26-24.21,33.74-24.21h13.47v-5.75c0-8.77-4.39-13.92-14.68-13.92-9.08,0-14.22,4.54-18.01,9.99l-11.5-10.29c5.75-9.08,14.98-15.13,30.87-15.13,21.33,0,32.68,10.14,32.68,28.14v37.22h7.87v15.43h-10.74c-8.32,0-13.46-5.45-14.68-13.62h-.91c-2.57,10.14-11.2,15.43-23,15.43-16.04,0-25.12-9.23-25.12-23.3ZM346.5,450.76v-10.44h-12.41c-10.14,0-15.13,3.48-15.13,9.68v2.57c0,6.35,4.39,9.53,11.95,9.53,8.62,0,15.58-3.93,15.58-11.35Z"/>
        <path d="M389.47,353.51h19.37v54.89h.6c2.88-9.08,11.35-14.83,21.79-14.83,19.97,0,31.02,14.83,31.02,41.15s-11.04,41.46-31.02,41.46c-10.44,0-18.76-6.05-21.79-14.98h-.6v13.16h-19.37v-120.85ZM441.97,441.69v-13.62c0-11.2-6.96-18.61-16.95-18.61-9.23,0-16.19,4.99-16.19,12.71v25.12c0,8.17,6.96,12.86,16.19,12.86,9.99,0,16.95-7.26,16.95-18.46Z"/>
        <path d="M474.66,452.88c0-16.19,12.26-24.21,33.74-24.21h13.47v-5.75c0-8.77-4.39-13.92-14.68-13.92-9.08,0-14.22,4.54-18.01,9.99l-11.5-10.29c5.75-9.08,14.98-15.13,30.87-15.13,21.33,0,32.68,10.14,32.68,28.14v37.22h7.87v15.43h-10.74c-8.32,0-13.46-5.45-14.68-13.62h-.91c-2.57,10.14-11.2,15.43-23,15.43-16.04,0-25.12-9.23-25.12-23.3ZM521.87,450.76v-10.44h-12.41c-10.14,0-15.13,3.48-15.13,9.68v2.57c0,6.35,4.39,9.53,11.95,9.53,8.62,0,15.58-3.93,15.58-11.35Z"/>
        <path d="M564.84,353.51h19.37v55.04h.76c3.18-8.47,9.83-14.98,22.09-14.98,16.19,0,25.27,11.2,25.27,30.87v49.93h-19.37v-47.96c0-11.2-3.78-16.95-13.01-16.95-8.02,0-15.74,4.24-15.74,12.71v52.2h-19.37v-120.85Z"/>
      </g>
    </g>
  </g>
</svg>